<?xml version="1.0" encoding="utf-8"?>
<!-- Generator: Adobe Illustrator 26.0.1, SVG Export Plug-In . SVG Version: 6.00 Build 0)  -->
<svg version="1.1" id="Layer_1" xmlns="http://www.w3.org/2000/svg" xmlns:xlink="http://www.w3.org/1999/xlink" x="0px" y="0px"
	 viewBox="0 0 3840 2160" style="enable-background:new 0 0 3840 2160;" xml:space="preserve">
<style type="text/css">
	.st0{fill:#FFFFFF;}
	.st1{fill-rule:evenodd;clip-rule:evenodd;fill:url(#SVGID_1_);}
	.st2{fill-rule:evenodd;clip-rule:evenodd;fill:url(#SVGID_00000132084225704414585280000005419130988847219885_);}
	.st3{fill-rule:evenodd;clip-rule:evenodd;fill:url(#SVGID_00000000187605480258516570000016911538925883736461_);}
	.st4{fill-rule:evenodd;clip-rule:evenodd;fill:url(#SVGID_00000124868040571047386050000003063480967787696267_);}
	.st5{fill-rule:evenodd;clip-rule:evenodd;fill:url(#SVGID_00000125600993408716179170000005687391477191922332_);}
	.st6{fill-rule:evenodd;clip-rule:evenodd;fill:url(#SVGID_00000072255859553235436090000004936888145506035592_);}
</style>
<g id="BACKGROUND">
	<rect class="st0" width="3840" height="2160"/>
</g>
<g id="OBJECT">
	
		<linearGradient id="SVGID_1_" gradientUnits="userSpaceOnUse" x1="1321.1821" y1="127.1711" x2="1875.582" y2="874.7711" gradientTransform="matrix(1 0 0 -1 0 2160)">
		<stop  offset="0" style="stop-color:#00AEEF"/>
		<stop  offset="1" style="stop-color:#FFFFFF"/>
	</linearGradient>
	<path class="st1" d="M1700.2,1190.8c-54.1,39.8-89.1,99.6-89.1,164.3c0,109.4,100.2,191.5,223.8,183.3s223.7-103.6,223.7-213
		C1914.4,1520.2,1611,1355.1,1700.2,1190.8z"/>
	
		<radialGradient id="SVGID_00000019648650963833260490000002483592340994886035_" cx="2535.3" cy="1699.5" r="2255.8301" gradientTransform="matrix(1 0 0 -1 0 2160)" gradientUnits="userSpaceOnUse">
		<stop  offset="0" style="stop-color:#FFFFFF"/>
		<stop  offset="0.5" style="stop-color:#26B3E8"/>
		<stop  offset="1" style="stop-color:#3D419A"/>
	</radialGradient>
	<path style="fill-rule:evenodd;clip-rule:evenodd;fill:url(#SVGID_00000019648650963833260490000002483592340994886035_);" d="
		M1908.4,607.5v324.3c-22.4-7.7-46-11.6-69.7-11.5c-118.4,0-214.4,95.5-215.1,213.6c-95.3,12.2-168.9,93.4-168.9,192
		c0,131.2,127.6,223.1,251,184.7c-57.3-32.1-94.7-88.6-94.7-155.5c0-87.3,62.3-160.3,140.1-193.2c69.4-29.4,153.3-28.2,218.7,11.3
		V698.1c109.9,68.7,258.5,72.3,298.2,259.5C2253.9,723.7,2012.4,703,1908.4,607.5z"/>
	
		<radialGradient id="SVGID_00000147911207875532680060000011841002521084216483_" cx="1532.9" cy="1660.3" r="1040.52" gradientTransform="matrix(1 0 0 -1 0 2160)" gradientUnits="userSpaceOnUse">
		<stop  offset="0" style="stop-color:#FFFFFF"/>
		<stop  offset="0.5" style="stop-color:#26B3E8"/>
		<stop  offset="1" style="stop-color:#3D419A"/>
	</radialGradient>
	<path style="fill-rule:evenodd;clip-rule:evenodd;fill:url(#SVGID_00000147911207875532680060000011841002521084216483_);" d="
		M1788.5,926.1c73.4,6,111.5,53.6,119.8,136.1V931.8c-22.4-7.7-46-11.6-69.7-11.5C1821.8,920.2,1805,922.2,1788.5,926.1z"/>
	
		<radialGradient id="SVGID_00000101083902463346064460000000932221716958475702_" cx="2720.1001" cy="1369.1" r="1636.34" gradientTransform="matrix(1 0 0 -1 0 2160)" gradientUnits="userSpaceOnUse">
		<stop  offset="0" style="stop-color:#FFFFFF"/>
		<stop  offset="0.5" style="stop-color:#26B3E8"/>
		<stop  offset="1" style="stop-color:#3D419A"/>
	</radialGradient>
	<path style="fill-rule:evenodd;clip-rule:evenodd;fill:url(#SVGID_00000101083902463346064460000000932221716958475702_);" d="
		M2259.8,1168.6c-5.4-109.3-92.3-197-201.2-203.9v360.6c0,131.4-134.3,221.1-257.2,213c100.8,27.5,195.4,16.1,282.1-45.6
		c32.8,25.6,73.2,39.4,114.8,39.3c103.3,0,187-83.7,187-187C2385.3,1263.5,2332.8,1194.1,2259.8,1168.6z"/>
	
		<radialGradient id="SVGID_00000083769728817930637730000015420788137771437220_" cx="1600.1" cy="831.5" r="1005.22" gradientTransform="matrix(1 0 0 -1 0 2160)" gradientUnits="userSpaceOnUse">
		<stop  offset="0" style="stop-color:#FFFFFF"/>
		<stop  offset="0.5" style="stop-color:#26B3E8"/>
		<stop  offset="1" style="stop-color:#3D419A"/>
	</radialGradient>
	<path style="fill-rule:evenodd;clip-rule:evenodd;fill:url(#SVGID_00000083769728817930637730000015420788137771437220_);" d="
		M2058.6,964.7V1221c50.3-56.5,129.7-77.1,201.2-52.4C2254.4,1059.3,2167.5,971.6,2058.6,964.7z"/>
	
		<radialGradient id="SVGID_00000176044789006485273930000008404370463246501030_" cx="2706.1001" cy="828.7" r="1332.8" gradientTransform="matrix(1 0 0 -1 0 2160)" gradientUnits="userSpaceOnUse">
		<stop  offset="0" style="stop-color:#FFFFFF"/>
		<stop  offset="0.5" style="stop-color:#26B3E8"/>
		<stop  offset="1" style="stop-color:#3D419A"/>
	</radialGradient>
	<path style="fill-rule:evenodd;clip-rule:evenodd;fill:url(#SVGID_00000176044789006485273930000008404370463246501030_);" d="
		M2198.4,1158.3c-25.1,0-50,5-73.1,14.9c100.8-8.7,187.8,70.4,187.8,172s-87,180.8-187.8,172.1c23.1,9.8,48,14.9,73.1,14.9
		c103.3,0,187-83.7,187-187S2301.6,1158.3,2198.4,1158.3z"/>
</g>
</svg>
