<svg xmlns="http://www.w3.org/2000/svg" xmlns:xlink="http://www.w3.org/1999/xlink" viewBox="0 0 2100 2100"><defs><style>.cls-1{fill:#fff;}.cls-2,.cls-3,.cls-4,.cls-5,.cls-6,.cls-7{fill-rule:evenodd;}.cls-2{fill:url(#linear-gradient);}.cls-3{fill:url(#radial-gradient);}.cls-4{fill:url(#radial-gradient-2);}.cls-5{fill:url(#radial-gradient-3);}.cls-6{fill:url(#radial-gradient-4);}.cls-7{fill:url(#radial-gradient-5);}</style><linearGradient id="linear-gradient" x1="451.17" y1="2002.82" x2="1005.57" y2="1255.22" gradientUnits="userSpaceOnUse"><stop offset="0" stop-color="#00aeef"/><stop offset="1" stop-color="#fff"/></linearGradient><radialGradient id="radial-gradient" cx="1665.3" cy="430.5" r="2255.83" gradientUnits="userSpaceOnUse"><stop offset="0" stop-color="#fff"/><stop offset="0.5" stop-color="#26b3e8"/><stop offset="1" stop-color="#3d419a"/></radialGradient><radialGradient id="radial-gradient-2" cx="662.9" cy="469.7" r="1040.52" xlink:href="#radial-gradient"/><radialGradient id="radial-gradient-3" cx="1850.1" cy="760.9" r="1636.34" xlink:href="#radial-gradient"/><radialGradient id="radial-gradient-4" cx="730.1" cy="1298.5" r="1005.22" xlink:href="#radial-gradient"/><radialGradient id="radial-gradient-5" cx="1836.1" cy="1301.3" r="1332.8" xlink:href="#radial-gradient"/></defs><g id="BACKGROUND"><rect class="cls-1" width="2100" height="2100"/></g><g id="OBJECT"><path class="cls-2" d="M830.16,1160.75C776.07,1200.58,741,1260.32,741,1325.1c0,109.4,100.18,191.51,223.84,183.27s223.71-103.62,223.71-213C1044.41,1490.18,741,1325.1,830.16,1160.75Z"/><path class="cls-3" d="M1038.38,577.5V901.76a214.65,214.65,0,0,0-69.69-11.55c-118.37,0-214.37,95.51-215.11,213.63-95.27,12.17-168.89,93.42-168.89,192,0,131.15,127.59,223.09,251,184.74C778.41,1448.51,741,1392,741,1325.1c0-87.27,62.32-160.29,140.13-193.23,69.45-29.38,153.28-28.15,218.68,11.31V668.09c109.89,68.71,258.49,72.28,298.2,259.49C1383.91,693.66,1142.38,673,1038.38,577.5Z"/><path class="cls-4" d="M918.54,896.11c73.38,6,111.49,53.59,119.84,136.07V901.76a214.65,214.65,0,0,0-69.69-11.55A217.11,217.11,0,0,0,918.54,896.11Z"/><path class="cls-5" d="M1389.81,1138.63c-5.41-109.28-92.31-197-201.22-203.92v360.64c0,131.4-134.35,221.14-257.15,213,100.8,27.54,195.45,16.1,282.11-45.6a186.07,186.07,0,0,0,114.8,39.33c103.26,0,187-83.71,187-187C1515.31,1233.52,1462.83,1164.07,1389.81,1138.63Z"/><path class="cls-6" d="M1188.59,934.71V1191a187.36,187.36,0,0,1,201.22-52.37C1384.4,1029.35,1297.5,941.59,1188.59,934.71Z"/><path class="cls-7" d="M1328.35,1128.3a186,186,0,0,0-73.13,14.88c100.79-8.73,187.82,70.43,187.82,172s-87,180.82-187.82,172.09a186,186,0,0,0,73.13,14.87c103.26,0,187-83.71,187-187S1431.61,1128.3,1328.35,1128.3Z"/></g></svg>