<svg id="e6XGoDHzxVc1" xmlns="http://www.w3.org/2000/svg" xmlns:xlink="http://www.w3.org/1999/xlink" viewBox="0 0 64 64" shape-rendering="geometricPrecision" text-rendering="geometricPrecision"><style><![CDATA[#e6XGoDHzxVc2_ts {animation: e6XGoDHzxVc2_ts__ts 3000ms linear infinite normal forwards}@keyframes e6XGoDHzxVc2_ts__ts { 0% {transform: translate(49.15px,34.200001px) scale(1,1)} 50% {transform: translate(49.15px,34.200001px) scale(1.230305,1.230312)} 100% {transform: translate(49.15px,34.200001px) scale(1,1)}} #e6XGoDHzxVc3_tr {animation: e6XGoDHzxVc3_tr__tr 3000ms linear infinite normal forwards}@keyframes e6XGoDHzxVc3_tr__tr { 0% {transform: translate(32.189292px,32.061483px) rotate(0deg)} 33.333333% {transform: translate(32.189292px,32.061483px) rotate(3.028008deg)} 66.666667% {transform: translate(32.189292px,32.061483px) rotate(0.684256deg)} 100% {transform: translate(32.189292px,32.061483px) rotate(3.37239deg)}} #e6XGoDHzxVc4_tr {animation: e6XGoDHzxVc4_tr__tr 3000ms linear infinite normal forwards}@keyframes e6XGoDHzxVc4_tr__tr { 0% {transform: translate(34.35px,16.587989px) rotate(0deg)} 100% {transform: translate(34.35px,16.587989px) rotate(-72.863509deg)}} #e6XGoDHzxVc5_ts {animation: e6XGoDHzxVc5_ts__ts 3000ms linear infinite normal forwards}@keyframes e6XGoDHzxVc5_ts__ts { 0% {transform: translate(17.45px,47.800001px) scale(1,1)} 50% {transform: translate(17.45px,47.800001px) scale(0.836219,0.836219)} 100% {transform: translate(17.45px,47.800001px) scale(1,1)}} #e6XGoDHzxVc5 {animation: e6XGoDHzxVc5_c_o 3000ms linear infinite normal forwards}@keyframes e6XGoDHzxVc5_c_o { 0% {opacity: 1} 50% {opacity: 0.75} 100% {opacity: 1}}]]></style><defs><linearGradient id="e6XGoDHzxVc3-fill" x1="22.0668" y1="18.6653" x2="38.6668" y2="47.4353" spreadMethod="pad" gradientUnits="userSpaceOnUse" gradientTransform="matrix(1 0 0 1 0 0)"><stop id="e6XGoDHzxVc3-fill-0" offset="0%" stop-color="rgb(134,195,219)"/><stop id="e6XGoDHzxVc3-fill-1" offset="45%" stop-color="rgb(134,195,219)"/><stop id="e6XGoDHzxVc3-fill-2" offset="100%" stop-color="rgb(94,175,207)"/></linearGradient></defs><g id="e6XGoDHzxVc2_ts" transform="translate(49.15,34.200001) scale(1,1)"><polygon id="e6XGoDHzxVc2" points="53.6,37 50.4,36.5 48.2,38.9 47.6,35.6 44.7,34.3 47.6,32.8 48,29.5 50.3,31.8 53.5,31.2 52,34.1" transform="translate(-49.15,-34.200001)" fill="rgb(255,197,13)" stroke="none" stroke-width="1"/></g><g id="e6XGoDHzxVc3_tr" transform="translate(32.189292,32.061483) rotate(0)"><path id="e6XGoDHzxVc3" d="M46.7,36.2C37.5,36.3,30,28.9,29.9,19.7C29.9,19.7,29.9,19.7,29.9,19.7C29.9,18.3,30.1,16.9,30.4,15.6C21.4,16.6,14.9,24.9,16,34C17.1,43.1,25.4,49.5,34.5,48.4C41.2,47.6,46.8,42.7,48.5,36.1C47.9,36.2,47.3,36.2,46.7,36.2Z" transform="translate(-32.189292,-32.061483)" fill="url(#e6XGoDHzxVc3-fill)" stroke="rgb(114,185,213)" stroke-width="0.5" stroke-linecap="round" stroke-linejoin="round"/></g><g id="e6XGoDHzxVc4_tr" transform="translate(34.35,16.587989) rotate(0)"><polygon id="e6XGoDHzxVc4" points="34.4,13.9 35.2,15.5 37,15.8 35.7,17.1 36,18.9 34.4,18 32.7,18.9 33,17.1 31.7,15.8 33.5,15.5" transform="translate(-34.35,-16.4)" fill="rgb(255,197,13)" stroke="none" stroke-width="1"/></g><g id="e6XGoDHzxVc5_ts" transform="translate(17.45,47.800001) scale(1,1)"><polygon id="e6XGoDHzxVc5" points="13.8,39.9 18.4,43.1 23.7,41.2 22,46.5 25.4,51 19.8,51 16.7,55.7 14.9,50.4 9.5,48.8 14,45.5" transform="translate(-17.45,-47.800001)" fill="rgb(255,197,13)" stroke="none" stroke-width="1"/></g></svg>